CodaCaption-Regular.ufo
<glyph name="exclam" format="1">
  <advance width="508"/>
  <unicode hex="0021"/>
  <outline>
    <contour>
      <point x="257" y="-20" type="curve" smooth="yes"/>
      <point x="326" y="-20"/>
      <point x="393" y="27"/>
      <point x="393" y="125" type="curve" smooth="yes"/>
      <point x="393" y="219"/>
      <point x="321" y="269"/>
      <point x="251" y="269" type="curve" smooth="yes"/>
      <point x="183" y="269"/>
      <point x="116" y="222"/>
      <point x="116" y="125" type="curve" smooth="yes"/>
      <point x="116" y="30"/>
      <point x="187" y="-20"/>
    </contour>
    <contour>
      <point x="254" y="496" type="curve" smooth="yes"/>
      <point x="265" y="496"/>
      <point x="279" y="500"/>
      <point x="282" y="530" type="curve" smooth="yes"/>
      <point x="316" y="919"/>
      <point x="357" y="1393"/>
      <point x="357" y="1418" type="curve" smooth="yes"/>
      <point x="357" y="1508"/>
      <point x="335" y="1552"/>
      <point x="254" y="1552" type="curve" smooth="yes"/>
      <point x="172" y="1552"/>
      <point x="150" y="1508"/>
      <point x="150" y="1418" type="curve" smooth="yes"/>
      <point x="150" y="1392"/>
      <point x="188" y="919"/>
      <point x="226" y="530" type="curve" smooth="yes"/>
      <point x="228" y="500"/>
      <point x="242" y="496"/>
    </contour>
  </outline>
</glyph>
<glyph name="percent" format="1">
  <advance width="2242"/>
  <unicode hex="0025"/>
  <outline>
    <contour>
      <point x="849" y="3" type="line"/>
      <point x="1011" y="3" type="line"/>
      <point x="1393" y="1570" type="line"/>
      <point x="1228" y="1570" type="line"/>
    </contour>
    <contour>
      <point x="1758" y="168" type="curve" smooth="yes"/>
      <point x="2019" y="168"/>
      <point x="2106" y="238"/>
      <point x="2106" y="482" type="curve" smooth="yes"/>
      <point x="2106" y="572"/>
      <point x="2106" y="631"/>
      <point x="2102" y="696" type="curve" smooth="yes"/>
      <point x="2089" y="947"/>
      <point x="2035" y="1016"/>
      <point x="1758" y="1016" type="curve" smooth="yes"/>
      <point x="1502" y="1016"/>
      <point x="1414" y="951"/>
      <point x="1414" y="701" type="curve" smooth="yes"/>
      <point x="1414" y="611"/>
      <point x="1414" y="552"/>
      <point x="1417" y="487" type="curve" smooth="yes"/>
      <point x="1429" y="234"/>
      <point x="1480" y="168"/>
    </contour>
    <contour>
      <point x="1740" y="296" type="curve" smooth="yes"/>
      <point x="1566" y="296"/>
      <point x="1553" y="310"/>
      <point x="1553" y="524" type="curve" smooth="yes"/>
      <point x="1553" y="566"/>
      <point x="1554" y="590"/>
      <point x="1554" y="649" type="curve" smooth="yes"/>
      <point x="1554" y="888"/>
      <point x="1569" y="889"/>
      <point x="1758" y="889" type="curve" smooth="yes"/>
      <point x="1956" y="889"/>
      <point x="1958" y="886"/>
      <point x="1958" y="645" type="curve" smooth="yes"/>
      <point x="1958" y="520" type="line" smooth="yes"/>
      <point x="1958" y="311"/>
      <point x="1945" y="296"/>
    </contour>
    <contour>
      <point x="486" y="582" type="curve" smooth="yes"/>
      <point x="747" y="582"/>
      <point x="834" y="653"/>
      <point x="834" y="896" type="curve" smooth="yes"/>
      <point x="834" y="991"/>
      <point x="833" y="1052"/>
      <point x="830" y="1119" type="curve" smooth="yes"/>
      <point x="816" y="1363"/>
      <point x="760" y="1430"/>
      <point x="486" y="1430" type="curve" smooth="yes"/>
      <point x="230" y="1430"/>
      <point x="142" y="1366"/>
      <point x="142" y="1116" type="curve" smooth="yes"/>
      <point x="142" y="1024"/>
      <point x="142" y="965"/>
      <point x="145" y="899" type="curve" smooth="yes"/>
      <point x="157" y="649"/>
      <point x="209" y="582"/>
    </contour>
    <contour>
      <point x="468" y="710" type="curve" smooth="yes"/>
      <point x="294" y="710"/>
      <point x="281" y="725"/>
      <point x="281" y="939" type="curve" smooth="yes"/>
      <point x="281" y="981"/>
      <point x="282" y="1004"/>
      <point x="282" y="1064" type="curve" smooth="yes"/>
      <point x="282" y="1302"/>
      <point x="297" y="1303"/>
      <point x="485" y="1303" type="curve" smooth="yes"/>
      <point x="683" y="1303"/>
      <point x="686" y="1300"/>
      <point x="686" y="1060" type="curve" smooth="yes"/>
      <point x="686" y="935" type="line" smooth="yes"/>
      <point x="686" y="726"/>
      <point x="673" y="710"/>
    </contour>
  </outline>
</glyph>
<glyph name="parenleft" format="1">
  <advance width="791"/>
  <unicode hex="0028"/>
  <outline>
    <contour>
      <point x="669" y="-232" type="curve"/>
      <point x="685" y="-102" type="line"/>
      <point x="415" y="-59"/>
      <point x="327" y="251"/>
      <point x="327" y="723" type="curve" smooth="yes"/>
      <point x="327" y="1195"/>
      <point x="415" y="1504"/>
      <point x="685" y="1547" type="curve"/>
      <point x="669" y="1677" type="line"/>
      <point x="274" y="1642"/>
      <point x="143" y="1235"/>
      <point x="143" y="724" type="curve" smooth="yes"/>
      <point x="143" y="212"/>
      <point x="274" y="-196"/>
    </contour>
  </outline>
</glyph>
<glyph name="parenright" format="1">
  <advance width="791"/>
  <unicode hex="0029"/>
  <outline>
    <contour>
      <point x="122" y="-232" type="line"/>
      <point x="518" y="-196"/>
      <point x="648" y="214"/>
      <point x="648" y="724" type="curve" smooth="yes"/>
      <point x="648" y="1235"/>
      <point x="518" y="1642"/>
      <point x="122" y="1677" type="curve"/>
      <point x="107" y="1547" type="line"/>
      <point x="376" y="1504"/>
      <point x="464" y="1195"/>
      <point x="464" y="723" type="curve" smooth="yes"/>
      <point x="464" y="251"/>
      <point x="376" y="-59"/>
      <point x="107" y="-102" type="curve"/>
    </contour>
  </outline>
</glyph>
<glyph name="slash" format="1">
  <advance width="757"/>
  <unicode hex="002F"/>
  <outline>
    <contour>
      <point x="110" y="-27" type="line"/>
      <point x="271" y="-27" type="line"/>
      <point x="647" y="1512" type="line"/>
      <point x="477" y="1512" type="line"/>
    </contour>
  </outline>
</glyph>
<glyph name="zero" format="1">
  <advance width="1297"/>
  <unicode hex="0030"/>
  <outline>
    <contour>
      <point x="648" y="-20" type="curve" smooth="yes"/>
      <point x="1144.03" y="-20"/>
      <point x="1146" y="232.937"/>
      <point x="1146" y="787.629" type="curve" smooth="yes"/>
      <point x="1146" y="801" type="line"/>
      <point x="1146" y="813" type="line" smooth="yes"/>
      <point x="1146" y="1294"/>
      <point x="1093" y="1505"/>
      <point x="649" y="1505" type="curve" smooth="yes"/>
      <point x="184" y="1505"/>
      <point x="151" y="1278"/>
      <point x="151" y="758" type="curve" smooth="yes"/>
      <point x="151" y="730" type="line" smooth="yes"/>
      <point x="151" y="216"/>
      <point x="169" y="-20"/>
    </contour>
    <contour>
      <point x="649" y="128" type="curve" smooth="yes"/>
      <point x="435" y="128"/>
      <point x="343" y="180"/>
      <point x="336" y="299" type="curve" smooth="yes"/>
      <point x="327" y="447"/>
      <point x="325" y="580"/>
      <point x="325" y="741" type="curve" smooth="yes"/>
      <point x="325" y="899"/>
      <point x="328" y="1026"/>
      <point x="337" y="1175" type="curve" smooth="yes"/>
      <point x="344" y="1307"/>
      <point x="445" y="1362"/>
      <point x="649" y="1362" type="curve" smooth="yes"/>
      <point x="851" y="1362"/>
      <point x="952" y="1307"/>
      <point x="960" y="1175" type="curve" smooth="yes"/>
      <point x="968" y="1026"/>
      <point x="973" y="899"/>
      <point x="973" y="741" type="curve" smooth="yes"/>
      <point x="973" y="580"/>
      <point x="971" y="447"/>
      <point x="961" y="299" type="curve" smooth="yes"/>
      <point x="954" y="180"/>
      <point x="862" y="128"/>
    </contour>
  </outline>
</glyph>
<glyph name="one" format="1">
  <advance width="688"/>
  <unicode hex="0031"/>
  <outline>
    <contour>
      <point x="311" y="0" type="line"/>
      <point x="486" y="0" type="line"/>
      <point x="486" y="1485" type="line"/>
      <point x="340" y="1485" type="line"/>
      <point x="303" y="1387"/>
      <point x="228" y="1340"/>
      <point x="127" y="1336" type="curve"/>
      <point x="127" y="1250" type="line"/>
      <point x="311" y="1250" type="line"/>
    </contour>
  </outline>
</glyph>
<glyph name="semicolon" format="1">
  <advance width="588"/>
  <unicode hex="003B"/>
  <outline>
    <contour>
      <point x="306" y="925" type="curve" smooth="yes"/>
      <point x="394" y="925"/>
      <point x="444" y="991"/>
      <point x="444" y="1076" type="curve" smooth="yes"/>
      <point x="444" y="1158"/>
      <point x="387" y="1228"/>
      <point x="306" y="1228" type="curve" smooth="yes"/>
      <point x="217" y="1228"/>
      <point x="168" y="1160"/>
      <point x="168" y="1076" type="curve" smooth="yes"/>
      <point x="168" y="995"/>
      <point x="223" y="925"/>
    </contour>
    <contour>
      <point x="194" y="-100" type="curve" smooth="yes"/>
      <point x="330" y="-100"/>
      <point x="448" y="90"/>
      <point x="448" y="259" type="curve" smooth="yes"/>
      <point x="448" y="351"/>
      <point x="393" y="435"/>
      <point x="308" y="435" type="curve" smooth="yes"/>
      <point x="216" y="435"/>
      <point x="163" y="365"/>
      <point x="163" y="283" type="curve" smooth="yes"/>
      <point x="163" y="199.602"/>
      <point x="223.129" y="130.989"/>
      <point x="305.22" y="130.989" type="curve" smooth="yes"/>
      <point x="305.812" y="130.989"/>
      <point x="306.405" y="130.993"/>
      <point x="307" y="131" type="curve"/>
      <point x="307" y="41"/>
      <point x="222" y="-30"/>
      <point x="134" y="-30" type="curve"/>
      <point x="134" y="-96" type="line"/>
      <point x="145" y="-99"/>
      <point x="164" y="-100"/>
    </contour>
  </outline>
</glyph>
<glyph name="E" format="1">
  <advance width="1138"/>
  <unicode hex="0045"/>
  <outline>
    <contour>
      <point x="585" y="0" type="move" name="bot"/>
    </contour>
    <contour>
      <point x="661" y="0" type="move" name="ogonek"/>
    </contour>
    <contour>
      <point x="585" y="1487" type="move" name="top"/>
    </contour>
    <contour>
      <point x="192" y="1485" type="line"/>
      <point x="192" y="0" type="line"/>
      <point x="1033" y="0" type="line"/>
      <point x="1054" y="148" type="line"/>
      <point x="383" y="148" type="line"/>
      <point x="383" y="694" type="line"/>
      <point x="947" y="694" type="line"/>
      <point x="947" y="852" type="line"/>
      <point x="383" y="852" type="line"/>
      <point x="383" y="1336" type="line"/>
      <point x="1044" y="1336" type="line"/>
      <point x="1024" y="1485" type="line"/>
    </contour>
  </outline>
</glyph>
<glyph name="F" format="1">
  <advance width="1060"/>
  <unicode hex="0046"/>
  <outline>
    <contour>
      <point x="546" y="0" type="move" name="bot"/>
    </contour>
    <contour>
      <point x="597" y="1487" type="move" name="top"/>
    </contour>
    <contour>
      <point x="192" y="1485" type="line"/>
      <point x="192" y="0" type="line"/>
      <point x="383" y="0" type="line"/>
      <point x="383" y="687" type="line"/>
      <point x="913" y="687" type="line"/>
      <point x="913" y="845" type="line"/>
      <point x="383" y="845" type="line"/>
      <point x="383" y="1336" type="line"/>
      <point x="1006" y="1336" type="line"/>
      <point x="986" y="1485" type="line"/>
    </contour>
  </outline>
</glyph>
<glyph name="I" format="1">
  <advance width="575"/>
  <unicode hex="0049"/>
  <outline>
    <contour>
      <point x="288" y="0" type="move" name="bot"/>
    </contour>
    <contour>
      <point x="294" y="0" type="move" name="ogonek"/>
    </contour>
    <contour>
      <point x="288" y="1487" type="move" name="top"/>
    </contour>
    <contour>
      <point x="192" y="1485" type="line"/>
      <point x="192" y="0" type="line"/>
      <point x="383" y="0" type="line"/>
      <point x="383" y="1485" type="line"/>
    </contour>
  </outline>
</glyph>
<glyph name="N" format="1">
  <advance width="1475"/>
  <unicode hex="004E"/>
  <outline>
    <contour>
      <point x="738" y="0" type="move" name="bot"/>
    </contour>
    <contour>
      <point x="759" y="1487" type="move" name="top"/>
    </contour>
    <contour>
      <point x="1112" y="1485" type="line"/>
      <point x="1112" y="270" type="line"/>
      <point x="388" y="1485" type="line"/>
      <point x="192" y="1485" type="line"/>
      <point x="192" y="0" type="line"/>
      <point x="362" y="0" type="line"/>
      <point x="362" y="1200" type="line"/>
      <point x="1081" y="0" type="line"/>
      <point x="1283" y="0" type="line"/>
      <point x="1283" y="1485" type="line"/>
    </contour>
  </outline>
</glyph>
<glyph name="Q" format="1">
  <advance width="1436"/>
  <unicode hex="0051"/>
  <outline>
    <component base="O"/>
    <contour>
      <point x="850" y="28" type="line"/>
      <point x="1100" y="-354" type="line"/>
      <point x="1248" y="-272" type="line"/>
      <point x="1039" y="65" type="line"/>
    </contour>
  </outline>
</glyph>
<glyph name="R" format="1">
  <advance width="1371"/>
  <unicode hex="0052"/>
  <outline>
    <contour>
      <point x="696" y="0" type="move" name="bot"/>
    </contour>
    <contour>
      <point x="696" y="1487" type="move" name="top"/>
    </contour>
    <contour>
      <point x="382" y="796" type="line"/>
      <point x="382" y="1336" type="line"/>
      <point x="724" y="1336" type="line" smooth="yes"/>
      <point x="1013" y="1336"/>
      <point x="1027" y="1302"/>
      <point x="1027" y="1082" type="curve" smooth="yes"/>
      <point x="1027" y="844"/>
      <point x="997" y="796"/>
      <point x="737" y="796" type="curve" smooth="yes"/>
    </contour>
    <contour>
      <point x="192" y="0" type="line"/>
      <point x="382" y="0" type="line"/>
      <point x="382" y="641" type="line"/>
      <point x="695" y="641" type="line" smooth="yes"/>
      <point x="850" y="641"/>
      <point x="954" y="601"/>
      <point x="979" y="428" type="curve" smooth="yes"/>
      <point x="1042" y="0" type="line"/>
      <point x="1248" y="0" type="line"/>
      <point x="1168" y="466" type="line" smooth="yes"/>
      <point x="1144" y="602"/>
      <point x="1092" y="684"/>
      <point x="969" y="709" type="curve"/>
      <point x="969" y="710" type="line"/>
      <point x="1120" y="737"/>
      <point x="1215" y="813"/>
      <point x="1215" y="1085" type="curve" smooth="yes"/>
      <point x="1215" y="1467"/>
      <point x="1025" y="1485"/>
      <point x="634" y="1485" type="curve" smooth="yes"/>
      <point x="192" y="1485" type="line"/>
    </contour>
  </outline>
</glyph>
<glyph name="S" format="1">
  <advance width="1291"/>
  <unicode hex="0053"/>
  <outline>
    <contour>
      <point x="639" y="0" type="move" name="bot"/>
    </contour>
    <contour>
      <point x="639" y="1487" type="move" name="top"/>
    </contour>
    <contour>
      <point x="887" y="650" type="curve"/>
      <point x="951.424" y="638.751"/>
      <point x="962.022" y="578.638"/>
      <point x="962.022" y="406.024" type="curve" smooth="yes"/>
      <point x="962.022" y="181.738"/>
      <point x="926.812" y="139"/>
      <point x="641" y="139" type="curve" smooth="yes"/>
      <point x="470" y="139"/>
      <point x="395" y="152"/>
      <point x="357" y="194" type="curve" smooth="yes"/>
      <point x="320" y="236"/>
      <point x="322" y="296"/>
      <point x="309" y="411" type="curve"/>
      <point x="135" y="382" type="line"/>
      <point x="149" y="76"/>
      <point x="169" y="-20"/>
      <point x="636" y="-20" type="curve" smooth="yes"/>
      <point x="1007" y="-20"/>
      <point x="1150" y="6"/>
      <point x="1150" y="436" type="curve" smooth="yes"/>
      <point x="1150" y="780"/>
      <point x="1035" y="803"/>
      <point x="781" y="845" type="curve"/>
      <point x="479" y="897" type="line" smooth="yes"/>
      <point x="370.376" y="915.104"/>
      <point x="337" y="948.24"/>
      <point x="337" y="1074" type="curve" smooth="yes"/>
      <point x="337" y="1301"/>
      <point x="368" y="1341"/>
      <point x="663" y="1341" type="curve" smooth="yes"/>
      <point x="811" y="1341"/>
      <point x="875" y="1332"/>
      <point x="908" y="1299" type="curve" smooth="yes"/>
      <point x="942" y="1267"/>
      <point x="940" y="1217"/>
      <point x="948" y="1123" type="curve"/>
      <point x="1115" y="1164" type="line"/>
      <point x="1115" y="1460"/>
      <point x="978" y="1505"/>
      <point x="631" y="1505" type="curve" smooth="yes"/>
      <point x="262" y="1505"/>
      <point x="155" y="1434"/>
      <point x="155" y="1076" type="curve" smooth="yes"/>
      <point x="155" y="851"/>
      <point x="214" y="762"/>
      <point x="385" y="734" type="curve"/>
      <point x="727" y="675" type="line"/>
      <point x="724.1" y="676.933"/>
      <point x="876.306" y="649.901"/>
      <point x="886.468" y="649.901" type="curve" smooth="yes"/>
      <point x="886.818" y="649.901"/>
      <point x="887" y="649.933"/>
    </contour>
  </outline>
</glyph>
<glyph name="W" format="1">
  <advance width="1911"/>
  <unicode hex="0057"/>
  <outline>
    <contour>
      <point x="953" y="0" type="move" name="bot"/>
    </contour>
    <contour>
      <point x="953" y="1487" type="move" name="top"/>
    </contour>
    <contour>
      <point x="1620" y="1485" type="line"/>
      <point x="1392" y="292" type="line"/>
      <point x="1378" y="292" type="line"/>
      <point x="1061" y="1485" type="line"/>
      <point x="868" y="1485" type="line"/>
      <point x="547" y="284" type="line"/>
      <point x="538" y="284" type="line"/>
      <point x="304" y="1485" type="line"/>
      <point x="110" y="1485" type="line"/>
      <point x="432" y="0" type="line"/>
      <point x="636" y="0" type="line"/>
      <point x="959" y="1174" type="line"/>
      <point x="974" y="1174" type="line"/>
      <point x="1272" y="0" type="line"/>
      <point x="1476" y="0" type="line"/>
      <point x="1801" y="1485" type="line"/>
    </contour>
  </outline>
</glyph>
<glyph name="Y" format="1">
  <advance width="1209"/>
  <unicode hex="0059"/>
  <outline>
    <contour>
      <point x="617" y="0" type="move" name="bot"/>
    </contour>
    <contour>
      <point x="617" y="1487" type="move" name="top"/>
    </contour>
    <contour>
      <point x="973" y="1485" type="line"/>
      <point x="607" y="717" type="line"/>
      <point x="605" y="717" type="line"/>
      <point x="251" y="1485" type="line"/>
      <point x="50" y="1485" type="line"/>
      <point x="504" y="517" type="line"/>
      <point x="504" y="0" type="line"/>
      <point x="694" y="0" type="line"/>
      <point x="694" y="517" type="line"/>
      <point x="1167" y="1485" type="line"/>
    </contour>
  </outline>
</glyph>
<glyph name="backslash" format="1">
  <advance width="762"/>
  <unicode hex="005C"/>
  <outline>
    <contour>
      <point x="115" y="1512" type="line"/>
      <point x="468" y="-27" type="line"/>
      <point x="648" y="-27" type="line"/>
      <point x="305" y="1512" type="line"/>
    </contour>
  </outline>
</glyph>
<glyph name="bracketright" format="1">
  <advance width="694"/>
  <unicode hex="005D"/>
  <outline>
    <contour>
      <point x="92" y="1629" type="line"/>
      <point x="92" y="1482" type="line"/>
      <point x="344" y="1482" type="line"/>
      <point x="344" y="-122" type="line"/>
      <point x="92" y="-122" type="line"/>
      <point x="92" y="-270" type="line"/>
      <point x="521" y="-270" type="line"/>
      <point x="521" y="1629" type="line"/>
    </contour>
  </outline>
</glyph>
<glyph name="asciicircum" format="1">
  <advance width="960"/>
  <unicode hex="005E"/>
  <outline>
    <contour>
      <point x="481" y="1486" type="curve" smooth="yes"/>
      <point x="437" y="1486"/>
      <point x="411" y="1472"/>
      <point x="392" y="1434" type="curve" smooth="yes"/>
      <point x="49" y="751" type="line" smooth="yes"/>
      <point x="45.4833" y="744.102"/>
      <point x="43.9241" y="737.606"/>
      <point x="43.9241" y="731.639" type="curve" smooth="yes"/>
      <point x="43.9241" y="708.591"/>
      <point x="67.1854" y="693.431"/>
      <point x="90.7497" y="693.431" type="curve" smooth="yes"/>
      <point x="106.189" y="693.431"/>
      <point x="121.758" y="699.939"/>
      <point x="131" y="715" type="curve" smooth="yes"/>
      <point x="481" y="1315" type="line"/>
      <point x="831" y="715" type="line" smooth="yes"/>
      <point x="840.242" y="699.939"/>
      <point x="855.811" y="693.431"/>
      <point x="871.25" y="693.431" type="curve" smooth="yes"/>
      <point x="894.815" y="693.431"/>
      <point x="918.076" y="708.591"/>
      <point x="918.076" y="731.639" type="curve" smooth="yes"/>
      <point x="918.076" y="737.606"/>
      <point x="916.517" y="744.102"/>
      <point x="913" y="751" type="curve" smooth="yes"/>
      <point x="570" y="1434" type="line" smooth="yes"/>
      <point x="551" y="1472"/>
      <point x="525" y="1486"/>
    </contour>
  </outline>
</glyph>
<glyph name="a" format="1">
  <advance width="1113"/>
  <unicode hex="0061"/>
  <outline>
    <contour>
      <point x="559" y="0" type="move" name="bot"/>
    </contour>
    <contour>
      <point x="895" y="0" type="move" name="ogonek"/>
    </contour>
    <contour>
      <point x="534" y="1091" type="move" name="top"/>
    </contour>
    <contour>
      <point x="784" y="319" type="line" smooth="yes"/>
      <point x="784" y="203"/>
      <point x="717" y="118"/>
      <point x="484" y="118" type="curve" smooth="yes"/>
      <point x="334" y="118"/>
      <point x="310" y="142"/>
      <point x="305" y="269" type="curve" smooth="yes"/>
      <point x="304" y="295"/>
      <point x="304" y="306"/>
      <point x="304" y="341" type="curve" smooth="yes"/>
      <point x="304" y="435"/>
      <point x="370" y="477"/>
      <point x="784" y="477" type="curve"/>
    </contour>
    <contour>
      <point x="299" y="819" type="line"/>
      <point x="303.221" y="966.731"/>
      <point x="307.231" y="985"/>
      <point x="542" y="985" type="curve" smooth="yes"/>
      <point x="710" y="985"/>
      <point x="784" y="963"/>
      <point x="784" y="891" type="curve" smooth="yes"/>
      <point x="784" y="595" type="line"/>
      <point x="698" y="595"/>
      <point x="626" y="595"/>
      <point x="553" y="591" type="curve" smooth="yes"/>
      <point x="294" y="577"/>
      <point x="133" y="522"/>
      <point x="133" y="353" type="curve" smooth="yes"/>
      <point x="133" y="86"/>
      <point x="198" y="-20"/>
      <point x="463" y="-20" type="curve" smooth="yes"/>
      <point x="647" y="-20"/>
      <point x="750" y="9"/>
      <point x="792" y="158" type="curve"/>
      <point x="824" y="0" type="line"/>
      <point x="970" y="0" type="line"/>
      <point x="970" y="715" type="line" smooth="yes"/>
      <point x="970" y="1024"/>
      <point x="867" y="1107"/>
      <point x="555" y="1107" type="curve" smooth="yes"/>
      <point x="320" y="1107"/>
      <point x="155" y="1094"/>
      <point x="155" y="871" type="curve" smooth="yes"/>
      <point x="155" y="855"/>
      <point x="155" y="844"/>
      <point x="157" y="827" type="curve"/>
    </contour>
  </outline>
</glyph>
<glyph name="c" format="1">
  <advance width="1083"/>
  <unicode hex="0063"/>
  <outline>
    <contour>
      <point x="547" y="0" type="move" name="bot"/>
    </contour>
    <contour>
      <point x="531" y="1091" type="move" name="top"/>
    </contour>
    <contour>
      <point x="136" y="602" type="curve" smooth="yes"/>
      <point x="136" y="524" type="line"/>
      <point x="139" y="120"/>
      <point x="166" y="-20"/>
      <point x="574" y="-20" type="curve" smooth="yes"/>
      <point x="892" y="-20"/>
      <point x="955" y="41"/>
      <point x="975" y="246" type="curve"/>
      <point x="984" y="328" type="line"/>
      <point x="832" y="347" type="line"/>
      <point x="819" y="224" type="line"/>
      <point x="811" y="129"/>
      <point x="778" y="114"/>
      <point x="564" y="114" type="curve" smooth="yes"/>
      <point x="313" y="114"/>
      <point x="311" y="162"/>
      <point x="311" y="450" type="curve" smooth="yes"/>
      <point x="311" y="700" type="line" smooth="yes"/>
      <point x="311" y="915"/>
      <point x="318" y="972"/>
      <point x="583" y="972" type="curve" smooth="yes"/>
      <point x="805" y="972"/>
      <point x="801" y="935"/>
      <point x="812" y="861" type="curve"/>
      <point x="834" y="741" type="line"/>
      <point x="984" y="769" type="line"/>
      <point x="967" y="887" type="line" smooth="yes"/>
      <point x="941" y="1069"/>
      <point x="875" y="1107"/>
      <point x="584" y="1107" type="curve" smooth="yes"/>
      <point x="165" y="1107"/>
      <point x="136" y="998"/>
    </contour>
  </outline>
</glyph>
<glyph name="e" format="1">
  <advance width="1126"/>
  <unicode hex="0065"/>
  <outline>
    <contour>
      <point x="570" y="0" type="move" name="bot"/>
    </contour>
    <contour>
      <point x="652" y="0" type="move" name="ogonek"/>
    </contour>
    <contour>
      <point x="548" y="1091" type="move" name="top"/>
    </contour>
    <contour>
      <point x="322" y="649" type="line"/>
      <point x="324" y="717"/>
      <point x="321" y="803"/>
      <point x="339" y="874" type="curve" smooth="yes"/>
      <point x="360" y="954"/>
      <point x="380" y="974"/>
      <point x="583" y="974" type="curve" smooth="yes"/>
      <point x="758" y="974"/>
      <point x="811" y="953"/>
      <point x="817" y="867" type="curve" smooth="yes"/>
      <point x="823" y="787"/>
      <point x="827" y="721"/>
      <point x="828" y="649" type="curve"/>
    </contour>
    <contour>
      <point x="592" y="-20" type="curve" smooth="yes"/>
      <point x="856" y="-20"/>
      <point x="976" y="16"/>
      <point x="981" y="223" type="curve"/>
      <point x="981" y="223"/>
      <point x="983" y="311"/>
      <point x="984" y="313" type="curve"/>
      <point x="842" y="321" type="line"/>
      <point x="832" y="207" type="line" smooth="yes"/>
      <point x="827" y="145"/>
      <point x="777" y="113"/>
      <point x="600" y="113" type="curve" smooth="yes"/>
      <point x="394" y="113"/>
      <point x="334" y="134"/>
      <point x="329" y="228" type="curve" smooth="yes"/>
      <point x="323" y="338"/>
      <point x="322" y="429"/>
      <point x="321" y="547" type="curve"/>
      <point x="1008" y="547" type="line"/>
      <point x="1013" y="613" type="line"/>
      <point x="1008" y="1014"/>
      <point x="966" y="1107"/>
      <point x="584" y="1107" type="curve" smooth="yes"/>
      <point x="170" y="1107"/>
      <point x="136" y="1006"/>
      <point x="136" y="576" type="curve" smooth="yes"/>
      <point x="136" y="461" type="line" smooth="yes"/>
      <point x="136" y="73"/>
      <point x="212" y="-20"/>
    </contour>
  </outline>
</glyph>
<glyph name="k" format="1">
  <advance width="1057"/>
  <unicode hex="006B"/>
  <outline>
    <contour>
      <point x="528" y="0" type="move" name="bottom"/>
    </contour>
    <contour>
      <point x="534" y="0" type="move" name="bot"/>
    </contour>
    <contour>
      <point x="639" y="1291" type="move" name="top"/>
    </contour>
    <contour>
      <point x="160" y="1520" type="line"/>
      <point x="160" y="0" type="line"/>
      <point x="346" y="0" type="line"/>
      <point x="346" y="469" type="line"/>
      <point x="440" y="573" type="line"/>
      <point x="826" y="0" type="line"/>
      <point x="1031" y="0" type="line"/>
      <point x="580" y="656" type="line"/>
      <point x="995" y="1087" type="line"/>
      <point x="782" y="1087" type="line"/>
      <point x="519" y="806" type="line"/>
      <point x="460" y="741"/>
      <point x="403" y="679"/>
      <point x="345" y="616" type="curve"/>
      <point x="345" y="668"/>
      <point x="346" y="720"/>
      <point x="346" y="772" type="curve" smooth="yes"/>
      <point x="346" y="1520" type="line"/>
    </contour>
  </outline>
</glyph>
<glyph name="l" format="1">
  <advance width="495"/>
  <unicode hex="006C"/>
  <outline>
    <contour>
      <point x="262" y="0" type="move" name="bottom"/>
    </contour>
    <contour>
      <point x="262" y="1100" type="move" name="mid"/>
    </contour>
    <contour>
      <point x="263" y="0" type="move" name="bot"/>
    </contour>
    <contour>
      <point x="278" y="1091" type="move" name="caron.alt"/>
    </contour>
    <contour>
      <point x="261" y="1487" type="move" name="top"/>
    </contour>
    <contour>
      <point x="169" y="1520" type="line"/>
      <point x="169" y="0" type="line"/>
      <point x="355" y="0" type="line"/>
      <point x="355" y="1520" type="line"/>
    </contour>
  </outline>
</glyph>
<glyph name="t" format="1">
  <advance width="812"/>
  <unicode hex="0074"/>
  <outline>
    <contour>
      <point x="391" y="669" type="move" name="mid"/>
    </contour>
    <contour>
      <point x="459" y="0" type="move" name="bot"/>
    </contour>
    <contour>
      <point x="320" y="1256" type="move" name="caron.alt"/>
    </contour>
    <contour>
      <point x="366" y="1239" type="move" name="top"/>
    </contour>
    <contour>
      <point x="269" y="231" type="line" smooth="yes"/>
      <point x="269" y="36.0902"/>
      <point x="371.047" y="-15.1256"/>
      <point x="528.024" y="-15.1256" type="curve" smooth="yes"/>
      <point x="583.316" y="-15.1256"/>
      <point x="645.462" y="-10.1608"/>
      <point x="716" y="-1" type="curve"/>
      <point x="720" y="134" type="line"/>
      <point x="664.914" y="127.249"/>
      <point x="620.181" y="123.342"/>
      <point x="584.228" y="123.342" type="curve" smooth="yes"/>
      <point x="487.037" y="123.342"/>
      <point x="454" y="151.893"/>
      <point x="454" y="230" type="curve" smooth="yes"/>
      <point x="454" y="979" type="line"/>
      <point x="678" y="979" type="line"/>
      <point x="678" y="1087" type="line"/>
      <point x="454" y="1087" type="line"/>
      <point x="454" y="1438" type="line"/>
      <point x="269" y="1438" type="line"/>
      <point x="269" y="1087" type="line"/>
      <point x="99" y="1087" type="line"/>
      <point x="99" y="979" type="line"/>
      <point x="269" y="979" type="line"/>
    </contour>
  </outline>
</glyph>
<glyph name="u" format="1">
  <advance width="1178"/>
  <unicode hex="0075"/>
  <outline>
    <contour>
      <point x="906" y="0" type="move" name="ogonek"/>
    </contour>
    <contour>
      <point x="576" y="1091" type="move" name="top"/>
    </contour>
    <contour>
      <point x="818" y="1087" type="line"/>
      <point x="818" y="392" type="line" smooth="yes"/>
      <point x="818" y="361.625"/>
      <point x="819.306" y="332.441"/>
      <point x="819.306" y="305.147" type="curve" smooth="yes"/>
      <point x="819.306" y="193.162"/>
      <point x="797.325" y="113"/>
      <point x="573" y="113" type="curve"/>
      <point x="352.859" y="113"/>
      <point x="334.227" y="155.096"/>
      <point x="334.227" y="337.892" type="curve" smooth="yes"/>
      <point x="334.227" y="375.141"/>
      <point x="335" y="418.232"/>
      <point x="335" y="468" type="curve" smooth="yes"/>
      <point x="335" y="1087" type="line"/>
      <point x="149" y="1087" type="line"/>
      <point x="149" y="454" type="line" smooth="yes"/>
      <point x="149" y="108"/>
      <point x="205" y="-20"/>
      <point x="490" y="-20" type="curve" smooth="yes"/>
      <point x="648" y="-20"/>
      <point x="780" y="29"/>
      <point x="816" y="141" type="curve"/>
      <point x="834" y="-1" type="line"/>
      <point x="1006" y="-1" type="line"/>
      <point x="1006" y="1087" type="line"/>
    </contour>
  </outline>
</glyph>
<glyph name="v" format="1">
  <advance width="1022"/>
  <unicode hex="0076"/>
  <outline>
    <contour>
      <point x="787" y="1087" type="line"/>
      <point x="508" y="163" type="line"/>
      <point x="507" y="163" type="line"/>
      <point x="214" y="1087" type="line"/>
      <point x="40" y="1087" type="line"/>
      <point x="408" y="0" type="line"/>
      <point x="605" y="0" type="line"/>
      <point x="980" y="1087" type="line"/>
    </contour>
  </outline>
</glyph>
<glyph name="x" format="1">
  <advance width="1019"/>
  <unicode hex="0078"/>
  <outline>
    <contour>
      <point x="758" y="0" type="line"/>
      <point x="955" y="0" type="line"/>
      <point x="607" y="549" type="line"/>
      <point x="946" y="1087" type="line"/>
      <point x="771" y="1087" type="line"/>
      <point x="518" y="689" type="line"/>
      <point x="266" y="1087" type="line"/>
      <point x="71" y="1087" type="line"/>
      <point x="408" y="554" type="line"/>
      <point x="63" y="0" type="line"/>
      <point x="239" y="0" type="line"/>
      <point x="498" y="411" type="line"/>
    </contour>
  </outline>
</glyph>
<glyph name="asciitilde" format="1">
  <advance width="1079"/>
  <unicode hex="007E"/>
  <outline>
    <contour>
      <point x="281.067" y="786.638" type="curve" smooth="yes"/>
      <point x="434.347" y="786.638"/>
      <point x="623.17" y="611.764"/>
      <point x="796.927" y="611.764" type="curve" smooth="yes"/>
      <point x="929.767" y="611.764"/>
      <point x="980.762" y="719.359"/>
      <point x="1009" y="881" type="curve"/>
      <point x="938" y="918" type="line"/>
      <point x="898.868" y="829.528"/>
      <point x="880.723" y="783.753"/>
      <point x="807.842" y="783.753" type="curve" smooth="yes"/>
      <point x="657.945" y="783.753"/>
      <point x="514.875" y="948.061"/>
      <point x="328.788" y="948.061" type="curve" smooth="yes"/>
      <point x="317.831" y="948.061"/>
      <point x="306.895" y="947.402"/>
      <point x="296" y="946" type="curve" smooth="yes"/>
      <point x="205" y="934"/>
      <point x="106" y="851"/>
      <point x="79" y="705" type="curve"/>
      <point x="146" y="664" type="line"/>
      <point x="173.882" y="749.505"/>
      <point x="209.538" y="786.638"/>
    </contour>
  </outline>
</glyph>
<glyph name="brokenbar" format="1">
  <advance width="489"/>
  <unicode hex="00A6"/>
  <outline>
    <contour>
      <point x="166" y="566" type="line"/>
      <point x="166" y="-241" type="line"/>
      <point x="342" y="-241" type="line"/>
      <point x="342" y="566" type="line"/>
    </contour>
    <contour>
      <point x="166" y="1635" type="line"/>
      <point x="166" y="827" type="line"/>
      <point x="342" y="827" type="line"/>
      <point x="342" y="1635" type="line"/>
    </contour>
  </outline>
</glyph>
<glyph name="guillemotleft" format="1">
  <advance width="1711"/>
  <unicode hex="00AB"/>
  <outline>
    <contour>
      <point x="1271" y="255" type="curve" smooth="yes"/>
      <point x="1308" y="255"/>
      <point x="1336" y="287"/>
      <point x="1336" y="322" type="curve" smooth="yes"/>
      <point x="1336" y="340"/>
      <point x="1328" y="360"/>
      <point x="1311" y="377" type="curve" smooth="yes"/>
      <point x="895" y="781" type="line"/>
      <point x="1311" y="1186" type="line"/>
      <point x="1328" y="1208"/>
      <point x="1336" y="1228"/>
      <point x="1336" y="1240" type="curve" smooth="yes"/>
      <point x="1336" y="1277.66"/>
      <point x="1312.38" y="1307.73"/>
      <point x="1279.85" y="1307.73" type="curve" smooth="yes"/>
      <point x="1276.97" y="1307.73"/>
      <point x="1274.01" y="1307.49"/>
      <point x="1271" y="1307" type="curve"/>
      <point x="1267.8" y="1308.2"/>
      <point x="1264.6" y="1308.76"/>
      <point x="1261.37" y="1308.76" type="curve" smooth="yes"/>
      <point x="1248.44" y="1308.76"/>
      <point x="1235" y="1299.8"/>
      <point x="1219" y="1287" type="curve" smooth="yes"/>
      <point x="718" y="896" type="line" smooth="yes"/>
      <point x="671" y="860"/>
      <point x="647" y="825"/>
      <point x="647" y="781" type="curve" smooth="yes"/>
      <point x="647" y="743"/>
      <point x="669" y="704"/>
      <point x="718" y="667" type="curve"/>
      <point x="1219" y="275" type="line" smooth="yes"/>
      <point x="1237" y="261"/>
      <point x="1255" y="255"/>
    </contour>
    <contour>
      <point x="716" y="255" type="curve" smooth="yes"/>
      <point x="754" y="255"/>
      <point x="781" y="287"/>
      <point x="781" y="322" type="curve" smooth="yes"/>
      <point x="781" y="340"/>
      <point x="773" y="360"/>
      <point x="756" y="377" type="curve" smooth="yes"/>
      <point x="340" y="781" type="line"/>
      <point x="756" y="1186" type="line"/>
      <point x="773" y="1208"/>
      <point x="781" y="1228"/>
      <point x="781" y="1240" type="curve" smooth="yes"/>
      <point x="781" y="1277.66"/>
      <point x="758.221" y="1307.73"/>
      <point x="725.061" y="1307.73" type="curve" smooth="yes"/>
      <point x="722.12" y="1307.73"/>
      <point x="719.096" y="1307.49"/>
      <point x="716" y="1307" type="curve"/>
      <point x="712.8" y="1308.2"/>
      <point x="709.6" y="1308.76"/>
      <point x="706.368" y="1308.76" type="curve" smooth="yes"/>
      <point x="693.44" y="1308.76"/>
      <point x="680" y="1299.8"/>
      <point x="664" y="1287" type="curve" smooth="yes"/>
      <point x="163" y="896" type="line" smooth="yes"/>
      <point x="116" y="860"/>
      <point x="93" y="825"/>
      <point x="93" y="781" type="curve" smooth="yes"/>
      <point x="93" y="743"/>
      <point x="114" y="704"/>
      <point x="163" y="667" type="curve"/>
      <point x="664" y="275" type="line" smooth="yes"/>
      <point x="682" y="261"/>
      <point x="700" y="255"/>
    </contour>
  </outline>
</glyph>
<glyph name="macron" format="1">
  <advance width="832"/>
  <unicode hex="00AF"/>
  <outline>
    <contour>
      <point x="409" y="1376" type="move" name="_mid"/>
    </contour>
    <contour>
      <point x="412" y="1091" type="move" name="_top"/>
    </contour>
    <contour>
      <point x="122" y="1434" type="line"/>
      <point x="122" y="1312" type="line"/>
      <point x="712" y="1312" type="line"/>
      <point x="712" y="1434" type="line"/>
    </contour>
  </outline>
</glyph>
<glyph name="threesuperior" format="1">
  <advance width="1261"/>
  <unicode hex="00B3"/>
  <outline>
    <contour>
      <point x="650" y="427" type="curve" smooth="yes"/>
      <point x="916" y="427"/>
      <point x="1041" y="493"/>
      <point x="1041" y="739" type="curve" smooth="yes"/>
      <point x="1041" y="847"/>
      <point x="1036" y="943"/>
      <point x="942" y="969" type="curve"/>
      <point x="1035" y="994"/>
      <point x="1039" y="1073"/>
      <point x="1039" y="1181" type="curve" smooth="yes"/>
      <point x="1039" y="1428"/>
      <point x="970" y="1505"/>
      <point x="649" y="1505" type="curve" smooth="yes"/>
      <point x="307" y="1505"/>
      <point x="235" y="1422"/>
      <point x="235" y="1159" type="curve" smooth="yes"/>
      <point x="235" y="1135" type="line"/>
      <point x="426" y="1135" type="line"/>
      <point x="427" y="1171" type="line" smooth="yes"/>
      <point x="431" y="1348"/>
      <point x="459" y="1370"/>
      <point x="649" y="1370" type="curve" smooth="yes"/>
      <point x="840" y="1370"/>
      <point x="860" y="1335"/>
      <point x="860" y="1194" type="curve" smooth="yes"/>
      <point x="860" y="1156.76"/>
      <point x="860.913" y="1127.74"/>
      <point x="860.913" y="1105.23" type="curve" smooth="yes"/>
      <point x="860.913" y="1046.16"/>
      <point x="854.621" y="1032"/>
      <point x="809" y="1032" type="curve" smooth="yes"/>
      <point x="541" y="1032" type="line"/>
      <point x="541" y="916" type="line"/>
      <point x="809" y="916" type="line" smooth="yes"/>
      <point x="857.016" y="916"/>
      <point x="860.064" y="889.325"/>
      <point x="860.064" y="808.028" type="curve" smooth="yes"/>
      <point x="860.064" y="796.203"/>
      <point x="860" y="783.222"/>
      <point x="860" y="769" type="curve" smooth="yes"/>
      <point x="860" y="623"/>
      <point x="836" y="571"/>
      <point x="665" y="571" type="curve" smooth="yes"/>
      <point x="451.265" y="571"/>
      <point x="424.412" y="615.217"/>
      <point x="424.412" y="742.516" type="curve" smooth="yes"/>
      <point x="424.412" y="754.586"/>
      <point x="424.654" y="767.403"/>
      <point x="425" y="781" type="curve" smooth="yes"/>
      <point x="426" y="809" type="line"/>
      <point x="235" y="809" type="line"/>
      <point x="235" y="771" type="line" smooth="yes"/>
      <point x="235" y="521"/>
      <point x="316" y="427"/>
    </contour>
  </outline>
</glyph>
<glyph name="paragraph" format="1">
  <advance width="1116"/>
  <unicode hex="00B6"/>
  <outline>
    <contour>
      <point x="441" y="1485" type="line" smooth="yes"/>
      <point x="156" y="1485"/>
      <point x="29" y="1373"/>
      <point x="29" y="1141" type="curve" smooth="yes"/>
      <point x="29" y="923"/>
      <point x="218" y="813"/>
      <point x="530" y="813" type="curve"/>
      <point x="530" y="-239" type="line"/>
      <point x="648" y="-239" type="line"/>
      <point x="648" y="1421" type="line"/>
      <point x="860" y="1421" type="line"/>
      <point x="860" y="-239" type="line"/>
      <point x="965" y="-239" type="line"/>
      <point x="965" y="1485" type="line"/>
    </contour>
  </outline>
</glyph>
<glyph name="ordmasculine" format="1">
  <advance width="961"/>
  <unicode hex="00BA"/>
  <outline>
    <contour>
      <point x="290" y="839" type="curve" smooth="yes"/>
      <point x="290" y="1329" type="line" smooth="yes"/>
      <point x="290" y="1396"/>
      <point x="379" y="1406"/>
      <point x="481" y="1406" type="curve" smooth="yes"/>
      <point x="583" y="1406"/>
      <point x="673" y="1396"/>
      <point x="673" y="1329" type="curve" smooth="yes"/>
      <point x="673" y="839" type="line" smooth="yes"/>
      <point x="673" y="782"/>
      <point x="617" y="768"/>
      <point x="481" y="768" type="curve" smooth="yes"/>
      <point x="345" y="768"/>
      <point x="290" y="782"/>
    </contour>
    <contour>
      <point x="480" y="670" type="curve" smooth="yes"/>
      <point x="481.718" y="669.995"/>
      <point x="483.428" y="669.992"/>
      <point x="485.13" y="669.992" type="curve" smooth="yes"/>
      <point x="794.284" y="669.992"/>
      <point x="820" y="760.713"/>
      <point x="820" y="1072" type="curve" smooth="yes"/>
      <point x="820" y="1079" type="line" smooth="yes"/>
      <point x="820.016" y="1084.6"/>
      <point x="820.024" y="1090.13"/>
      <point x="820.024" y="1095.58" type="curve" smooth="yes"/>
      <point x="820.024" y="1439.11"/>
      <point x="787.136" y="1505"/>
      <point x="481" y="1505" type="curve" smooth="yes"/>
      <point x="176.698" y="1505"/>
      <point x="142.977" y="1438.08"/>
      <point x="142.977" y="1095.08" type="curve" smooth="yes"/>
      <point x="142.977" y="1089.79"/>
      <point x="142.985" y="1084.43"/>
      <point x="143" y="1079" type="curve" smooth="yes"/>
      <point x="143" y="1072" type="line" smooth="yes"/>
      <point x="143" y="759"/>
      <point x="169" y="670"/>
    </contour>
  </outline>
</glyph>
<glyph name="guillemotright" format="1">
  <advance width="1711"/>
  <unicode hex="00BB"/>
  <outline>
    <contour>
      <point x="825" y="255" type="curve" smooth="yes"/>
      <point x="841" y="255"/>
      <point x="858" y="261"/>
      <point x="876" y="275" type="curve" smooth="yes"/>
      <point x="1378" y="667" type="line" smooth="yes"/>
      <point x="1426" y="704"/>
      <point x="1448" y="743"/>
      <point x="1448" y="781" type="curve" smooth="yes"/>
      <point x="1448" y="825"/>
      <point x="1424" y="860"/>
      <point x="1378" y="896" type="curve" smooth="yes"/>
      <point x="876" y="1287" type="line" smooth="yes"/>
      <point x="860" y="1299.8"/>
      <point x="847.2" y="1308.76"/>
      <point x="834.528" y="1308.76" type="curve" smooth="yes"/>
      <point x="831.36" y="1308.76"/>
      <point x="828.2" y="1308.2"/>
      <point x="825" y="1307" type="curve"/>
      <point x="821.904" y="1307.49"/>
      <point x="818.874" y="1307.73"/>
      <point x="815.92" y="1307.73" type="curve" smooth="yes"/>
      <point x="782.623" y="1307.73"/>
      <point x="759" y="1277.66"/>
      <point x="759" y="1240" type="curve" smooth="yes"/>
      <point x="759" y="1228"/>
      <point x="764" y="1205"/>
      <point x="784" y="1186" type="curve" smooth="yes"/>
      <point x="1201" y="781" type="line"/>
      <point x="784" y="377" type="line" smooth="yes"/>
      <point x="767" y="360"/>
      <point x="759" y="340"/>
      <point x="759" y="322" type="curve" smooth="yes"/>
      <point x="759" y="287"/>
      <point x="787" y="255"/>
    </contour>
    <contour>
      <point x="270" y="255" type="curve" smooth="yes"/>
      <point x="286" y="255"/>
      <point x="304" y="261"/>
      <point x="322" y="275" type="curve" smooth="yes"/>
      <point x="823" y="667" type="line" smooth="yes"/>
      <point x="871" y="704"/>
      <point x="893" y="743"/>
      <point x="893" y="781" type="curve" smooth="yes"/>
      <point x="893" y="825"/>
      <point x="869" y="860"/>
      <point x="823" y="896" type="curve" smooth="yes"/>
      <point x="322" y="1287" type="line" smooth="yes"/>
      <point x="306" y="1299.8"/>
      <point x="292.56" y="1308.76"/>
      <point x="279.632" y="1308.76" type="curve" smooth="yes"/>
      <point x="276.4" y="1308.76"/>
      <point x="273.2" y="1308.2"/>
      <point x="270" y="1307" type="curve"/>
      <point x="266.904" y="1307.49"/>
      <point x="263.874" y="1307.73"/>
      <point x="260.92" y="1307.73" type="curve" smooth="yes"/>
      <point x="227.623" y="1307.73"/>
      <point x="204" y="1277.66"/>
      <point x="204" y="1240" type="curve" smooth="yes"/>
      <point x="204" y="1228"/>
      <point x="209" y="1205"/>
      <point x="229" y="1186" type="curve" smooth="yes"/>
      <point x="646" y="781" type="line"/>
      <point x="229" y="377" type="line" smooth="yes"/>
      <point x="212" y="360"/>
      <point x="204" y="340"/>
      <point x="204" y="322" type="curve" smooth="yes"/>
      <point x="204" y="287"/>
      <point x="232" y="255"/>
    </contour>
  </outline>
</glyph>
<glyph name="AE" format="1">
  <advance width="2082"/>
  <unicode hex="00C6"/>
  <outline>
    <contour>
      <point x="1161" y="1487" type="move" name="top"/>
    </contour>
    <contour>
      <point x="612" y="520" type="line"/>
      <point x="1065" y="1378" type="line"/>
      <point x="1065" y="520" type="line"/>
    </contour>
    <contour>
      <point x="103" y="0" type="line"/>
      <point x="329" y="0" type="line"/>
      <point x="546" y="383" type="line"/>
      <point x="1065" y="383" type="line"/>
      <point x="1065" y="0" type="line"/>
      <point x="1937" y="0" type="line"/>
      <point x="1937" y="163" type="line"/>
      <point x="1264" y="163" type="line"/>
      <point x="1264" y="696" type="line"/>
      <point x="1804" y="696" type="line"/>
      <point x="1804" y="859" type="line"/>
      <point x="1264" y="859" type="line"/>
      <point x="1264" y="1321" type="line"/>
      <point x="1918" y="1321" type="line"/>
      <point x="1918" y="1485" type="line"/>
      <point x="945" y="1485" type="line"/>
    </contour>
  </outline>
</glyph>
<glyph name="Oslash" format="1">
  <advance width="1735"/>
  <unicode hex="00D8"/>
  <outline>
    <contour>
      <point x="852" y="1595" type="move" name="top"/>
    </contour>
    <contour>
      <point x="1145" y="1328" type="line"/>
      <point x="1332" y="1616" type="line"/>
      <point x="1209" y="1688" type="line"/>
      <point x="1017" y="1392" type="line"/>
    </contour>
    <contour>
      <point x="259" y="-174" type="line"/>
      <point x="424" y="87" type="line"/>
      <point x="308" y="166" type="line"/>
      <point x="140" y="-100" type="line"/>
    </contour>
    <component base="O"/>
  </outline>
</glyph>
<glyph name="Thorn" format="1">
  <advance width="1290"/>
  <unicode hex="00DE"/>
  <outline>
    <contour>
      <point x="366" y="554" type="line"/>
      <point x="366" y="1117" type="line"/>
      <point x="600" y="1117" type="line" smooth="yes"/>
      <point x="942" y="1117"/>
      <point x="985" y="1116"/>
      <point x="985" y="832" type="curve" smooth="yes"/>
      <point x="985" y="620"/>
      <point x="981" y="554"/>
      <point x="693" y="554" type="curve" smooth="yes"/>
    </contour>
    <contour>
      <point x="178" y="0" type="line"/>
      <point x="366" y="0" type="line"/>
      <point x="366" y="390" type="line"/>
      <point x="586" y="390" type="line" smooth="yes"/>
      <point x="621.553" y="390"/>
      <point x="660.266" y="388.882"/>
      <point x="700.29" y="388.882" type="curve" smooth="yes"/>
      <point x="916.943" y="388.882"/>
      <point x="1172" y="421.654"/>
      <point x="1172" y="842" type="curve" smooth="yes"/>
      <point x="1172" y="854" type="line"/>
      <point x="1164" y="1210"/>
      <point x="1027" y="1278"/>
      <point x="614" y="1278" type="curve" smooth="yes"/>
      <point x="366" y="1278" type="line"/>
      <point x="366" y="1485" type="line"/>
      <point x="178" y="1485" type="line"/>
    </contour>
  </outline>
</glyph>
<glyph name="oslash" format="1">
  <advance width="1202"/>
  <unicode hex="00F8"/>
  <outline>
    <component base="o" xOffset="19"/>
    <contour>
      <point x="606" y="1112" type="move" name="top"/>
    </contour>
    <contour>
      <point x="118" y="10" type="line"/>
      <point x="1142" y="1035" type="line"/>
      <point x="1084" y="1093" type="line"/>
      <point x="60" y="68" type="line"/>
    </contour>
  </outline>
</glyph>
<glyph name="thorn" format="1">
  <advance width="1202"/>
  <unicode hex="00FE"/>
  <outline>
    <contour>
      <point x="614" y="141" type="curve" smooth="yes"/>
      <point x="385" y="141"/>
      <point x="343" y="142"/>
      <point x="343" y="363" type="curve" smooth="yes"/>
      <point x="343" y="464"/>
      <point x="344" y="600"/>
      <point x="344" y="783" type="curve" smooth="yes"/>
      <point x="344" y="975"/>
      <point x="351" y="996"/>
      <point x="635" y="996" type="curve" smooth="yes"/>
      <point x="851" y="996"/>
      <point x="870" y="989"/>
      <point x="870" y="753" type="curve" smooth="yes"/>
      <point x="870" y="402" type="line" smooth="yes"/>
      <point x="870" y="188"/>
      <point x="850" y="141"/>
    </contour>
    <contour>
      <point x="162" y="-401" type="line"/>
      <point x="346" y="-384" type="line"/>
      <point x="346" y="105" type="line"/>
      <point x="388" y="20"/>
      <point x="515" y="-24"/>
      <point x="715" y="-24" type="curve" smooth="yes"/>
      <point x="1011" y="-24"/>
      <point x="1058" y="125"/>
      <point x="1058" y="532" type="curve" smooth="yes"/>
      <point x="1058" y="913"/>
      <point x="1058" y="1160"/>
      <point x="696" y="1160" type="curve" smooth="yes"/>
      <point x="492" y="1160"/>
      <point x="378" y="1115"/>
      <point x="345" y="1032" type="curve"/>
      <point x="345" y="1578" type="line"/>
      <point x="162" y="1562" type="line"/>
    </contour>
  </outline>
</glyph>
<glyph name="Hbar" format="1">
  <advance width="1503"/>
  <unicode hex="0126"/>
  <outline>
    <contour>
      <point x="413" y="837" type="line"/>
      <point x="413" y="1079" type="line"/>
      <point x="1093" y="1079" type="line"/>
      <point x="1093" y="837" type="line"/>
    </contour>
    <contour>
      <point x="222" y="0" type="line"/>
      <point x="413" y="0" type="line"/>
      <point x="413" y="684" type="line"/>
      <point x="1093" y="684" type="line"/>
      <point x="1093" y="0" type="line"/>
      <point x="1284" y="0" type="line"/>
      <point x="1284" y="1079" type="line"/>
      <point x="1360" y="1079" type="line"/>
      <point x="1360" y="1181" type="line"/>
      <point x="1284" y="1181" type="line"/>
      <point x="1284" y="1485" type="line"/>
      <point x="1093" y="1485" type="line"/>
      <point x="1093" y="1181" type="line"/>
      <point x="413" y="1181" type="line"/>
      <point x="413" y="1485" type="line"/>
      <point x="222" y="1485" type="line"/>
      <point x="222" y="1181" type="line"/>
      <point x="144" y="1181" type="line"/>
      <point x="144" y="1079" type="line"/>
      <point x="222" y="1079" type="line"/>
    </contour>
  </outline>
</glyph>
<glyph name="lslash" format="1">
  <advance width="619"/>
  <unicode hex="0142"/>
  <outline>
    <component base="l" xOffset="31"/>
    <contour>
      <point x="55" y="818" type="line"/>
      <point x="536" y="1003" type="line"/>
      <point x="536" y="1141" type="line"/>
      <point x="55" y="958" type="line"/>
    </contour>
  </outline>
</glyph>
<glyph name="Eng" format="1">
  <advance width="1411"/>
  <unicode hex="014A"/>
  <outline>
    <contour>
      <point x="815" y="-395" type="line"/>
      <point x="1149" y="-395"/>
      <point x="1251" y="-297"/>
      <point x="1251" y="3" type="curve" smooth="yes"/>
      <point x="1251" y="1485" type="line"/>
      <point x="1081" y="1485" type="line"/>
      <point x="1081" y="333" type="line"/>
      <point x="356" y="1485" type="line"/>
      <point x="160" y="1485" type="line"/>
      <point x="160" y="0" type="line"/>
      <point x="330" y="0" type="line"/>
      <point x="330" y="1200" type="line"/>
      <point x="1083" y="43" type="line"/>
      <point x="1083" y="-88" type="line" smooth="yes"/>
      <point x="1084" y="-192"/>
      <point x="1076" y="-258"/>
      <point x="825" y="-258" type="curve"/>
    </contour>
  </outline>
</glyph>
<glyph name="eng" format="1">
  <advance width="1160"/>
  <unicode hex="014B"/>
  <outline>
    <contour>
      <point x="589" y="-400" type="line"/>
      <point x="954" y="-400"/>
      <point x="1008" y="-279"/>
      <point x="1012" y="93" type="curve"/>
      <point x="1012" y="592" type="line" smooth="yes"/>
      <point x="1012" y="963"/>
      <point x="980" y="1118"/>
      <point x="671" y="1118" type="curve" smooth="yes"/>
      <point x="525" y="1118"/>
      <point x="381" y="1082"/>
      <point x="344" y="963" type="curve"/>
      <point x="326" y="1087" type="line"/>
      <point x="156" y="1087" type="line"/>
      <point x="156" y="0" type="line"/>
      <point x="342" y="0" type="line"/>
      <point x="342" y="764" type="line" smooth="yes"/>
      <point x="342" y="915"/>
      <point x="380" y="984"/>
      <point x="644" y="984" type="curve" smooth="yes"/>
      <point x="816" y="984"/>
      <point x="825" y="964"/>
      <point x="825" y="642" type="curve" smooth="yes"/>
      <point x="825" y="-93" type="line" smooth="yes"/>
      <point x="825.021" y="-95.2144"/>
      <point x="825.033" y="-97.4116"/>
      <point x="825.033" y="-99.5915" type="curve" smooth="yes"/>
      <point x="825.033" y="-198.807"/>
      <point x="800.604" y="-262"/>
      <point x="555" y="-262" type="curve"/>
    </contour>
  </outline>
</glyph>
<glyph name="OE" format="1">
  <advance width="2115"/>
  <unicode hex="0152"/>
  <outline>
    <contour>
      <point x="1036" y="1487" type="move" name="top"/>
    </contour>
    <contour>
      <point x="728" y="150" type="line" smooth="yes"/>
      <point x="477" y="150"/>
      <point x="385" y="182"/>
      <point x="359" y="372" type="curve" smooth="yes"/>
      <point x="346.929" y="457.133"/>
      <point x="340.509" y="578.594"/>
      <point x="340.509" y="746.64" type="curve" smooth="yes"/>
      <point x="340.509" y="843.098"/>
      <point x="342.624" y="954.905"/>
      <point x="347" y="1084" type="curve" smooth="yes"/>
      <point x="354" y="1291"/>
      <point x="384" y="1336"/>
      <point x="728" y="1336" type="curve" smooth="yes"/>
      <point x="1111" y="1336" type="line"/>
      <point x="1111" y="150" type="line"/>
    </contour>
    <contour>
      <point x="728" y="0" type="curve" smooth="yes"/>
      <point x="1951" y="0" type="line"/>
      <point x="1972" y="148" type="line"/>
      <point x="1301" y="148" type="line"/>
      <point x="1301" y="694" type="line"/>
      <point x="1866" y="694" type="line"/>
      <point x="1866" y="852" type="line"/>
      <point x="1301" y="852" type="line"/>
      <point x="1301" y="1335" type="line"/>
      <point x="1963" y="1335" type="line"/>
      <point x="1942" y="1485" type="line"/>
      <point x="728" y="1485" type="line" smooth="yes"/>
      <point x="226" y="1485"/>
      <point x="152" y="1338"/>
      <point x="152" y="791" type="curve" smooth="yes"/>
      <point x="152" y="748" type="line"/>
      <point x="154" y="150"/>
      <point x="178" y="0"/>
    </contour>
  </outline>
</glyph>
<glyph name="circumflex" format="1">
  <advance width="785"/>
  <unicode hex="02C6"/>
  <outline>
    <contour>
      <point x="389" y="1091" type="move" name="_top"/>
    </contour>
    <contour>
      <point x="644.018" y="1283.77" type="curve" smooth="yes"/>
      <point x="664.951" y="1283.77"/>
      <point x="684.881" y="1299.9"/>
      <point x="684.881" y="1320.5" type="curve" smooth="yes"/>
      <point x="684.881" y="1328.39"/>
      <point x="682.415" y="1336.38"/>
      <point x="678" y="1343" type="curve" smooth="yes"/>
      <point x="488" y="1647" type="line"/>
      <point x="462" y="1686"/>
      <point x="431" y="1698"/>
      <point x="396" y="1698" type="curve" smooth="yes"/>
      <point x="360" y="1698"/>
      <point x="329" y="1686"/>
      <point x="303" y="1647" type="curve"/>
      <point x="113" y="1343" type="line" smooth="yes"/>
      <point x="108.958" y="1336.71"/>
      <point x="106.53" y="1328.61"/>
      <point x="106.53" y="1320.42" type="curve" smooth="yes"/>
      <point x="106.53" y="1299.25"/>
      <point x="124.811" y="1283.68"/>
      <point x="146.92" y="1283.68" type="curve" smooth="yes"/>
      <point x="155.004" y="1283.68"/>
      <point x="162.451" y="1286"/>
      <point x="167" y="1291" type="curve" smooth="yes"/>
      <point x="396" y="1527" type="line"/>
      <point x="624" y="1291" type="line" smooth="yes"/>
      <point x="628.906" y="1286.09"/>
      <point x="636.2" y="1283.77"/>
    </contour>
  </outline>
</glyph>
<glyph name="caron" format="1">
  <advance width="785"/>
  <unicode hex="02C7"/>
  <outline>
    <contour>
      <point x="389" y="1091" type="move" name="_top"/>
    </contour>
    <contour>
      <point x="146.92" y="1694.32" type="curve" smooth="yes"/>
      <point x="125.056" y="1694.32"/>
      <point x="106.53" y="1678.91"/>
      <point x="106.53" y="1657.99" type="curve" smooth="yes"/>
      <point x="106.53" y="1649.88"/>
      <point x="108.958" y="1641.74"/>
      <point x="113" y="1635" type="curve" smooth="yes"/>
      <point x="303" y="1331" type="line"/>
      <point x="329" y="1293"/>
      <point x="360" y="1280"/>
      <point x="396" y="1280" type="curve" smooth="yes"/>
      <point x="431" y="1280"/>
      <point x="462" y="1293"/>
      <point x="488" y="1331" type="curve"/>
      <point x="678" y="1635" type="line" smooth="yes"/>
      <point x="682.415" y="1641.62"/>
      <point x="684.881" y="1649.61"/>
      <point x="684.881" y="1657.58" type="curve" smooth="yes"/>
      <point x="684.881" y="1678.3"/>
      <point x="666.265" y="1694.32"/>
      <point x="644.485" y="1694.32" type="curve" smooth="yes"/>
      <point x="636.492" y="1694.32"/>
      <point x="629.004" y="1692"/>
      <point x="624" y="1687" type="curve" smooth="yes"/>
      <point x="396" y="1451" type="line"/>
      <point x="167" y="1687" type="line" smooth="yes"/>
      <point x="162.451" y="1692"/>
      <point x="155.004" y="1694.32"/>
    </contour>
  </outline>
</glyph>
<glyph name="commaaccent" format="1">
  <advance width="487"/>
  <unicode hex="0326"/>
  <outline>
    <contour>
      <point x="252" y="0" type="move" name="_bot"/>
    </contour>
    <contour>
      <point x="113" y="-689" type="line"/>
      <point x="292" y="-689"/>
      <point x="424" y="-526"/>
      <point x="424" y="-356" type="curve" smooth="yes"/>
      <point x="424" y="-225"/>
      <point x="364" y="-162"/>
      <point x="260" y="-162" type="curve" smooth="yes"/>
      <point x="163" y="-162"/>
      <point x="99" y="-225"/>
      <point x="99" y="-309" type="curve" smooth="yes"/>
      <point x="99" y="-396"/>
      <point x="145" y="-459"/>
      <point x="240" y="-464" type="curve"/>
      <point x="240" y="-557"/>
      <point x="190" y="-628"/>
      <point x="113" y="-631" type="curve"/>
    </contour>
  </outline>
</glyph>
<glyph name="pi" format="1">
  <advance width="1477"/>
  <unicode hex="03C0"/>
  <outline>
    <contour>
      <point x="1122" y="-25" type="curve" smooth="yes"/>
      <point x="1189" y="-25"/>
      <point x="1265" y="-1"/>
      <point x="1340" y="48" type="curve"/>
      <point x="1340" y="148" type="line"/>
      <point x="1295" y="135"/>
      <point x="1256" y="128"/>
      <point x="1220" y="128" type="curve" smooth="yes"/>
      <point x="1097" y="128"/>
      <point x="1028" y="209"/>
      <point x="1028" y="416" type="curve" smooth="yes"/>
      <point x="1029" y="533"/>
      <point x="1055" y="697"/>
      <point x="1098" y="908" type="curve"/>
      <point x="1335" y="908" type="line"/>
      <point x="1335" y="1087" type="line"/>
      <point x="480" y="1087" type="line" smooth="yes"/>
      <point x="233" y="1087"/>
      <point x="130" y="996"/>
      <point x="130" y="772" type="curve"/>
      <point x="256" y="772" type="line"/>
      <point x="269" y="850"/>
      <point x="310" y="908"/>
      <point x="392" y="908" type="curve" smooth="yes"/>
      <point x="524" y="908" type="line"/>
      <point x="428" y="385" type="line" smooth="yes"/>
      <point x="387" y="162"/>
      <point x="260" y="106"/>
      <point x="169" y="106" type="curve"/>
      <point x="169" y="0" type="line"/>
      <point x="528" y="0"/>
      <point x="571" y="92"/>
      <point x="593" y="319" type="curve" smooth="yes"/>
      <point x="650" y="908" type="line"/>
      <point x="996" y="908" type="line"/>
      <point x="931" y="691"/>
      <point x="873" y="465"/>
      <point x="873" y="295" type="curve" smooth="yes"/>
      <point x="873" y="82"/>
      <point x="979" y="-25"/>
    </contour>
  </outline>
</glyph>
<glyph name="emdash" format="1">
  <advance width="1791"/>
  <unicode hex="2014"/>
  <outline>
    <contour>
      <point x="133" y="586" type="line"/>
      <point x="1656" y="586" type="line"/>
      <point x="1656" y="762" type="line"/>
      <point x="133" y="762" type="line"/>
    </contour>
  </outline>
</glyph>
<glyph name="quoteleft" format="1">
  <advance width="555"/>
  <unicode hex="2018"/>
  <outline>
    <contour>
      <point x="282" y="1001" type="curve" smooth="yes"/>
      <point x="369" y="1001"/>
      <point x="421" y="1082"/>
      <point x="421" y="1132" type="curve" smooth="yes"/>
      <point x="421" y="1230.01"/>
      <point x="378.856" y="1279.01"/>
      <point x="292.627" y="1279.01" type="curve" smooth="yes"/>
      <point x="291.756" y="1279.01"/>
      <point x="290.88" y="1279.01"/>
      <point x="290" y="1279" type="curve"/>
      <point x="290" y="1383"/>
      <point x="342" y="1482"/>
      <point x="427" y="1482" type="curve"/>
      <point x="427" y="1548" type="line"/>
      <point x="265" y="1548"/>
      <point x="131" y="1383"/>
      <point x="131" y="1201" type="curve" smooth="yes"/>
      <point x="131" y="1065"/>
      <point x="182" y="1001"/>
    </contour>
  </outline>
</glyph>
<glyph name="quotedblright" format="1">
  <advance width="1042"/>
  <unicode hex="201D"/>
  <outline>
    <contour>
      <point x="623" y="1001" type="line"/>
      <point x="791" y="1001"/>
      <point x="921" y="1175"/>
      <point x="921" y="1348" type="curve" smooth="yes"/>
      <point x="921" y="1463"/>
      <point x="870" y="1548"/>
      <point x="789" y="1548" type="curve" smooth="yes"/>
      <point x="676" y="1548"/>
      <point x="629" y="1466"/>
      <point x="629" y="1416" type="curve" smooth="yes"/>
      <point x="629" y="1318"/>
      <point x="672" y="1269"/>
      <point x="761" y="1269" type="curve"/>
      <point x="761" y="1161"/>
      <point x="711" y="1066"/>
      <point x="623" y="1066" type="curve"/>
    </contour>
    <contour>
      <point x="145" y="1001" type="line"/>
      <point x="312" y="1001"/>
      <point x="444" y="1175"/>
      <point x="444" y="1348" type="curve" smooth="yes"/>
      <point x="444" y="1462"/>
      <point x="389" y="1548"/>
      <point x="310" y="1548" type="curve" smooth="yes"/>
      <point x="198" y="1548"/>
      <point x="151" y="1470"/>
      <point x="151" y="1416" type="curve" smooth="yes"/>
      <point x="151" y="1318"/>
      <point x="194" y="1269"/>
      <point x="282" y="1269" type="curve"/>
      <point x="282" y="1164"/>
      <point x="231" y="1066"/>
      <point x="145" y="1066" type="curve"/>
    </contour>
  </outline>
</glyph>
<glyph name="dagger" format="1">
  <advance width="1054"/>
  <unicode hex="2020"/>
  <outline>
    <contour>
      <point x="528" y="8" type="curve" smooth="yes"/>
      <point x="598" y="8"/>
      <point x="632" y="52"/>
      <point x="632" y="142" type="curve" smooth="yes"/>
      <point x="632" y="279"/>
      <point x="608" y="434"/>
      <point x="563" y="936" type="curve"/>
      <point x="690" y="886"/>
      <point x="773" y="863"/>
      <point x="812" y="863" type="curve" smooth="yes"/>
      <point x="882" y="863"/>
      <point x="928" y="894"/>
      <point x="928" y="954" type="curve" smooth="yes"/>
      <point x="928" y="1037"/>
      <point x="895" y="1078"/>
      <point x="828" y="1078" type="curve" smooth="yes"/>
      <point x="779" y="1078"/>
      <point x="690" y="1054"/>
      <point x="558" y="1002" type="curve"/>
      <point x="604" y="1218"/>
      <point x="625" y="1345"/>
      <point x="625" y="1387" type="curve" smooth="yes"/>
      <point x="625" y="1509"/>
      <point x="590" y="1548"/>
      <point x="528" y="1548" type="curve" smooth="yes"/>
      <point x="480" y="1548"/>
      <point x="431" y="1511"/>
      <point x="431" y="1395" type="curve" smooth="yes"/>
      <point x="431" y="1337"/>
      <point x="452" y="1207"/>
      <point x="496" y="1002" type="curve"/>
      <point x="363" y="1054"/>
      <point x="315" y="1078"/>
      <point x="217" y="1078" type="curve" smooth="yes"/>
      <point x="162" y="1078"/>
      <point x="128" y="1030"/>
      <point x="128" y="968" type="curve" smooth="yes"/>
      <point x="128" y="897"/>
      <point x="166" y="863"/>
      <point x="243" y="863" type="curve" smooth="yes"/>
      <point x="315.039" y="863"/>
      <point x="490.308" y="936.039"/>
      <point x="492.025" y="936.039" type="curve" smooth="yes"/>
      <point x="492.043" y="936.039"/>
      <point x="424" y="300.81"/>
      <point x="424" y="142" type="curve" smooth="yes"/>
      <point x="424" y="59"/>
      <point x="451" y="8"/>
    </contour>
  </outline>
</glyph>
<glyph name="guilsinglright" format="1">
  <advance width="823"/>
  <unicode hex="203A"/>
  <outline>
    <contour>
      <point x="132" y="255" type="curve" smooth="yes"/>
      <point x="148" y="255"/>
      <point x="166" y="261"/>
      <point x="184" y="275" type="curve" smooth="yes"/>
      <point x="685" y="667" type="line"/>
      <point x="734" y="704"/>
      <point x="756" y="743"/>
      <point x="756" y="781" type="curve" smooth="yes"/>
      <point x="756" y="825"/>
      <point x="732" y="860"/>
      <point x="685" y="896" type="curve" smooth="yes"/>
      <point x="184" y="1287" type="line" smooth="yes"/>
      <point x="168" y="1299.8"/>
      <point x="154.56" y="1308.76"/>
      <point x="141.632" y="1308.76" type="curve" smooth="yes"/>
      <point x="138.4" y="1308.76"/>
      <point x="135.2" y="1308.2"/>
      <point x="132" y="1307" type="curve"/>
      <point x="128.985" y="1307.49"/>
      <point x="126.03" y="1307.73"/>
      <point x="123.145" y="1307.73" type="curve" smooth="yes"/>
      <point x="90.623" y="1307.73"/>
      <point x="67" y="1277.66"/>
      <point x="67" y="1240" type="curve" smooth="yes"/>
      <point x="67" y="1228"/>
      <point x="72" y="1205"/>
      <point x="92" y="1186" type="curve" smooth="yes"/>
      <point x="508" y="781" type="line"/>
      <point x="92" y="377" type="line" smooth="yes"/>
      <point x="75" y="360"/>
      <point x="67" y="340"/>
      <point x="67" y="322" type="curve" smooth="yes"/>
      <point x="67" y="287"/>
      <point x="95" y="255"/>
    </contour>
  </outline>
</glyph>
<glyph name="foursuperior" format="1">
  <advance width="1203"/>
  <unicode hex="2074"/>
  <outline>
    <contour>
      <point x="788" y="380" type="line"/>
      <point x="971" y="380" type="line"/>
      <point x="971" y="1073" type="line"/>
      <point x="788" y="1073" type="line"/>
      <point x="788" y="781" type="line"/>
      <point x="399" y="781" type="line"/>
      <point x="399" y="793" type="line"/>
      <point x="745" y="1485" type="line"/>
      <point x="576" y="1485" type="line"/>
      <point x="200" y="780" type="line"/>
      <point x="200" y="635" type="line"/>
      <point x="788" y="635" type="line"/>
    </contour>
  </outline>
</glyph>
<glyph name="Euro" format="1">
  <advance width="1357"/>
  <unicode hex="20AC"/>
  <outline>
    <contour>
      <point x="769" y="-23" type="curve" smooth="yes"/>
      <point x="1097" y="-23"/>
      <point x="1204" y="51"/>
      <point x="1240" y="329" type="curve" smooth="yes"/>
      <point x="1244" y="363"/>
      <point x="1247" y="393"/>
      <point x="1249" y="433" type="curve"/>
      <point x="1088" y="460" type="line"/>
      <point x="1078" y="327"/>
      <point x="1078" y="253"/>
      <point x="1037" y="199" type="curve" smooth="yes"/>
      <point x="996" y="146"/>
      <point x="917" y="125"/>
      <point x="739" y="125" type="curve" smooth="yes"/>
      <point x="431" y="125"/>
      <point x="351" y="182"/>
      <point x="343" y="292" type="curve" smooth="yes"/>
      <point x="337" y="381"/>
      <point x="335" y="453"/>
      <point x="334" y="544" type="curve"/>
      <point x="883" y="544" type="line"/>
      <point x="903" y="643" type="line"/>
      <point x="334" y="643" type="line"/>
      <point x="334" y="827" type="line"/>
      <point x="883" y="827" type="line"/>
      <point x="903" y="925" type="line"/>
      <point x="335" y="925" type="line"/>
      <point x="337" y="1023"/>
      <point x="339" y="1100"/>
      <point x="343" y="1195" type="curve" smooth="yes"/>
      <point x="351" y="1347"/>
      <point x="479" y="1360"/>
      <point x="738" y="1360" type="curve" smooth="yes"/>
      <point x="882" y="1360"/>
      <point x="958" y="1359"/>
      <point x="1006" y="1317" type="curve" smooth="yes"/>
      <point x="1054" y="1275"/>
      <point x="1071" y="1206"/>
      <point x="1086" y="1042" type="curve"/>
      <point x="1248" y="1078" type="line"/>
      <point x="1246" y="1106"/>
      <point x="1243" y="1125"/>
      <point x="1240" y="1150" type="curve" smooth="yes"/>
      <point x="1199" y="1446"/>
      <point x="1070" y="1507"/>
      <point x="751" y="1507" type="curve" smooth="yes"/>
      <point x="289" y="1507"/>
      <point x="180" y="1430"/>
      <point x="151" y="1060" type="curve" smooth="yes"/>
      <point x="148" y="1015"/>
      <point x="146" y="979"/>
      <point x="145" y="925" type="curve"/>
      <point x="-9" y="925" type="line"/>
      <point x="-29" y="827" type="line"/>
      <point x="143" y="827" type="line"/>
      <point x="143" y="643" type="line"/>
      <point x="-9" y="643" type="line"/>
      <point x="-29" y="544" type="line"/>
      <point x="145" y="544" type="line"/>
      <point x="147" y="502"/>
      <point x="149" y="475"/>
      <point x="152" y="438" type="curve" smooth="yes"/>
      <point x="182" y="96"/>
      <point x="292" y="-23"/>
    </contour>
  </outline>
</glyph>
<glyph name="uni2113" format="1">
  <advance width="1045"/>
  <unicode hex="2113"/>
  <outline>
    <contour>
      <point x="476" y="769" type="curve"/>
      <point x="476" y="1103" type="line" smooth="yes"/>
      <point x="476" y="1431"/>
      <point x="591" y="1481"/>
      <point x="691" y="1481" type="curve" smooth="yes"/>
      <point x="782" y="1480"/>
      <point x="838" y="1440"/>
      <point x="849" y="1321" type="curve" smooth="yes"/>
      <point x="850.509" y="1304.32"/>
      <point x="851.273" y="1288.07"/>
      <point x="851.273" y="1272.18" type="curve" smooth="yes"/>
      <point x="851.273" y="1077.6"/>
      <point x="736.718" y="939.114"/>
    </contour>
    <contour>
      <point x="288" y="233" type="line" smooth="yes"/>
      <point x="288" y="3.94514"/>
      <point x="441.631" y="-16.3752"/>
      <point x="591.565" y="-16.3752" type="curve" smooth="yes"/>
      <point x="679.295" y="-16.3752"/>
      <point x="814.137" y="3.55271e-15"/>
      <point x="815" y="0" type="curve" smooth="yes"/>
      <point x="815" y="133" type="line"/>
      <point x="744.322" y="123.362"/>
      <point x="693.452" y="117.942"/>
      <point x="641.899" y="117.942" type="curve" smooth="yes"/>
      <point x="490.312" y="117.942"/>
      <point x="473" y="167.659"/>
      <point x="473" y="252" type="curve" smooth="yes"/>
      <point x="473" y="622" type="line"/>
      <point x="807.668" y="822.032"/>
      <point x="1023.03" y="1024.84"/>
      <point x="1023.03" y="1295.35" type="curve" smooth="yes"/>
      <point x="1023.03" y="1516.78"/>
      <point x="878.294" y="1643"/>
      <point x="698" y="1643" type="curve" smooth="yes"/>
      <point x="501" y="1643"/>
      <point x="288" y="1514"/>
      <point x="288" y="1064" type="curve" smooth="yes"/>
      <point x="288" y="642" type="line"/>
      <point x="121" y="523" type="line"/>
      <point x="121" y="395" type="line"/>
      <point x="288" y="515" type="line"/>
    </contour>
  </outline>
</glyph>
<glyph name="summation" format="1">
  <advance width="1299"/>
  <unicode hex="2211"/>
  <outline>
    <contour>
      <point x="159" y="-19" type="line"/>
      <point x="1136" y="-19" type="line"/>
      <point x="1136" y="148" type="line"/>
      <point x="368" y="148" type="line"/>
      <point x="903" y="676" type="line"/>
      <point x="903" y="786" type="line"/>
      <point x="372" y="1325" type="line"/>
      <point x="1137" y="1325" type="line"/>
      <point x="1137" y="1485" type="line"/>
      <point x="159" y="1485" type="line"/>
      <point x="159" y="1317" type="line"/>
      <point x="720" y="731" type="line"/>
      <point x="159" y="166" type="line"/>
    </contour>
  </outline>
</glyph>
<glyph name="uni2215" format="1">
  <advance width="858"/>
  <unicode hex="2215"/>
  <outline>
    <contour>
      <point x="47" y="0" type="line"/>
      <point x="182" y="0" type="line"/>
      <point x="803" y="1449" type="line"/>
      <point x="664" y="1449" type="line"/>
    </contour>
  </outline>
</glyph>
<glyph name="infinity" format="1">
  <advance width="1579"/>
  <unicode hex="221E"/>
  <outline>
    <contour>
      <point x="1159" y="509" type="curve" smooth="yes"/>
      <point x="1029" y="509"/>
      <point x="902" y="632"/>
      <point x="847" y="809" type="curve"/>
      <point x="907" y="889"/>
      <point x="1022" y="942"/>
      <point x="1133" y="942" type="curve" smooth="yes"/>
      <point x="1220" y="942"/>
      <point x="1364" y="894"/>
      <point x="1364" y="719" type="curve" smooth="yes"/>
      <point x="1364" y="612"/>
      <point x="1296" y="509"/>
    </contour>
    <contour>
      <point x="427" y="516" type="curve" smooth="yes"/>
      <point x="286" y="516"/>
      <point x="216" y="622"/>
      <point x="216" y="729" type="curve" smooth="yes"/>
      <point x="216" y="834"/>
      <point x="285" y="939"/>
      <point x="423" y="939" type="curve" smooth="yes"/>
      <point x="527" y="939"/>
      <point x="637" y="836"/>
      <point x="689" y="689" type="curve"/>
      <point x="633" y="587"/>
      <point x="525" y="516"/>
    </contour>
    <contour>
      <point x="1549" y="738" type="curve" smooth="yes"/>
      <point x="1549" y="952.273"/>
      <point x="1425.13" y="1170.07"/>
      <point x="1171.81" y="1170.07" type="curve" smooth="yes"/>
      <point x="1027.71" y="1170.07"/>
      <point x="869.51" y="1081.85"/>
      <point x="780" y="953" type="curve"/>
      <point x="718" y="1074"/>
      <point x="573" y="1159"/>
      <point x="427" y="1159" type="curve" smooth="yes"/>
      <point x="163" y="1159"/>
      <point x="31" y="945"/>
      <point x="31" y="732" type="curve" smooth="yes"/>
      <point x="31" y="516"/>
      <point x="164" y="300"/>
      <point x="429" y="300" type="curve" smooth="yes"/>
      <point x="571" y="300"/>
      <point x="706" y="395"/>
      <point x="753" y="533" type="curve"/>
      <point x="828" y="393"/>
      <point x="995" y="296"/>
      <point x="1163" y="296" type="curve" smooth="yes"/>
      <point x="1163.57" y="295.998"/>
      <point x="1164.15" y="295.997"/>
      <point x="1164.72" y="295.997" type="curve" smooth="yes"/>
      <point x="1420.58" y="295.997"/>
      <point x="1549" y="518.492"/>
    </contour>
  </outline>
</glyph>
<glyph name="approxequal" format="1">
  <advance width="1071"/>
  <unicode hex="2248"/>
  <outline>
    <contour>
      <point x="761" y="881" type="curve" smooth="yes"/>
      <point x="651.766" y="881"/>
      <point x="446.585" y="1001.45"/>
      <point x="216.334" y="1001.45" type="curve" smooth="yes"/>
      <point x="133.64" y="1001.45"/>
      <point x="65.8934" y="970.4"/>
      <point x="51" y="747" type="curve"/>
      <point x="168" y="747" type="line"/>
      <point x="167" y="832"/>
      <point x="201" y="861"/>
      <point x="260" y="861" type="curve" smooth="yes"/>
      <point x="375" y="861"/>
      <point x="582" y="751"/>
      <point x="805" y="740" type="curve" smooth="yes"/>
      <point x="808.261" y="739.877"/>
      <point x="811.467" y="739.814"/>
      <point x="814.618" y="739.814" type="curve" smooth="yes"/>
      <point x="913.917" y="739.814"/>
      <point x="959.308" y="801.845"/>
      <point x="969" y="986" type="curve"/>
      <point x="851" y="986" type="line"/>
      <point x="846" y="907"/>
      <point x="814" y="881"/>
    </contour>
    <contour>
      <point x="811" y="545" type="curve" smooth="yes"/>
      <point x="702.086" y="545"/>
      <point x="499.059" y="665.281"/>
      <point x="269.483" y="665.281" type="curve" smooth="yes"/>
      <point x="186.171" y="665.281"/>
      <point x="116.131" y="637.091"/>
      <point x="102" y="411" type="curve"/>
      <point x="218" y="411" type="line"/>
      <point x="217" y="496"/>
      <point x="251" y="525"/>
      <point x="310" y="525" type="curve" smooth="yes"/>
      <point x="425" y="525"/>
      <point x="633" y="414"/>
      <point x="855" y="404" type="curve" smooth="yes"/>
      <point x="859" y="403.811"/>
      <point x="862.919" y="403.715"/>
      <point x="866.758" y="403.715" type="curve" smooth="yes"/>
      <point x="964.641" y="403.715"/>
      <point x="1010.34" y="466.208"/>
      <point x="1019" y="650" type="curve"/>
      <point x="901" y="650" type="line"/>
      <point x="896" y="571"/>
      <point x="864" y="545"/>
    </contour>
  </outline>
</glyph>
<glyph name="caron.alt" format="1">
  <advance width="582"/>
  <outline>
    <contour>
      <point x="46" y="1091" type="move" name="_caron.alt"/>
    </contour>
    <contour>
      <point x="240" y="1557" type="curve" smooth="yes"/>
      <point x="240" y="1449"/>
      <point x="286" y="1393"/>
      <point x="381" y="1389" type="curve"/>
      <point x="381" y="1296"/>
      <point x="331" y="1225"/>
      <point x="254" y="1221" type="curve"/>
      <point x="254" y="1164" type="line"/>
      <point x="434" y="1164"/>
      <point x="534" y="1336"/>
      <point x="534" y="1506" type="curve" smooth="yes"/>
      <point x="534" y="1633"/>
      <point x="457" y="1684"/>
      <point x="383" y="1684" type="curve" smooth="yes"/>
      <point x="311" y="1684"/>
      <point x="240" y="1635"/>
    </contour>
  </outline>
</glyph>
